<svg xmlns="http://www.w3.org/2000/svg" xmlns:xlink="http://www.w3.org/1999/xlink" width="1920" zoomAndPan="magnify" viewBox="0 0 1440 809.999993" height="1080" preserveAspectRatio="xMidYMid meet" version="1.2"><defs/><g id="4515208373"><g style="fill:#11475b;fill-opacity:1;"><g transform="translate(527.452456, 457.943072)"><path style="stroke:none" d="M 67.359375 0 L 42.640625 -42.953125 L 29.203125 -42.953125 L 29.203125 0 L 11.59375 0 L 11.59375 -107.359375 L 48.65625 -107.359375 C 56.894531 -107.359375 63.875 -105.914062 69.59375 -103.03125 C 75.3125 -100.15625 79.585938 -96.296875 82.421875 -91.453125 C 85.253906 -86.609375 86.671875 -81.203125 86.671875 -75.234375 C 86.671875 -68.234375 84.632812 -61.875 80.5625 -56.15625 C 76.5 -50.4375 70.242188 -46.546875 61.796875 -44.484375 L 88.359375 0 Z M 29.203125 -57 L 48.65625 -57 C 55.25 -57 60.21875 -58.644531 63.5625 -61.9375 C 66.914062 -65.238281 68.59375 -69.671875 68.59375 -75.234375 C 68.59375 -80.796875 66.941406 -85.144531 63.640625 -88.28125 C 60.347656 -91.425781 55.351562 -93 48.65625 -93 L 29.203125 -93 Z M 29.203125 -57 "/></g></g><g style="fill:#11475b;fill-opacity:1;"><g transform="translate(614.25824, 457.943072)"><path style="stroke:none" d="M 89.59375 -44.640625 C 89.59375 -41.453125 89.390625 -38.570312 88.984375 -36 L 23.9375 -36 C 24.457031 -29.195312 26.984375 -23.734375 31.515625 -19.609375 C 36.046875 -15.492188 41.609375 -13.4375 48.203125 -13.4375 C 57.671875 -13.4375 64.363281 -17.398438 68.28125 -25.328125 L 87.28125 -25.328125 C 84.707031 -17.503906 80.046875 -11.09375 73.296875 -6.09375 C 66.554688 -1.101562 58.191406 1.390625 48.203125 1.390625 C 40.066406 1.390625 32.78125 -0.4375 26.34375 -4.09375 C 19.90625 -7.75 14.859375 -12.894531 11.203125 -19.53125 C 7.546875 -26.175781 5.71875 -33.878906 5.71875 -42.640625 C 5.71875 -51.390625 7.492188 -59.085938 11.046875 -65.734375 C 14.597656 -72.378906 19.59375 -77.503906 26.03125 -81.109375 C 32.46875 -84.710938 39.859375 -86.515625 48.203125 -86.515625 C 56.234375 -86.515625 63.390625 -84.757812 69.671875 -81.25 C 75.953125 -77.75 80.84375 -72.832031 84.34375 -66.5 C 87.84375 -60.164062 89.59375 -52.878906 89.59375 -44.640625 Z M 71.21875 -50.203125 C 71.113281 -56.691406 68.796875 -61.894531 64.265625 -65.8125 C 59.734375 -69.726562 54.117188 -71.6875 47.421875 -71.6875 C 41.347656 -71.6875 36.144531 -69.753906 31.8125 -65.890625 C 27.488281 -62.023438 24.914062 -56.796875 24.09375 -50.203125 Z M 71.21875 -50.203125 "/></g></g><g style="fill:#11475b;fill-opacity:1;"><g transform="translate(698.7471, 457.943072)"><path style="stroke:none" d="M 29.203125 -114.3125 L 29.203125 0 L 11.59375 0 L 11.59375 -114.3125 Z M 29.203125 -114.3125 "/></g></g><g style="fill:#11475b;fill-opacity:1;"><g transform="translate(728.71108, 457.943072)"><path style="stroke:none" d="M 5.71875 -42.953125 C 5.71875 -51.492188 7.492188 -59.0625 11.046875 -65.65625 C 14.597656 -72.25 19.4375 -77.375 25.5625 -81.03125 C 31.695312 -84.6875 38.46875 -86.515625 45.875 -86.515625 C 52.570312 -86.515625 58.414062 -85.195312 63.40625 -82.5625 C 68.40625 -79.9375 72.398438 -76.671875 75.390625 -72.765625 L 75.390625 -85.125 L 93.15625 -85.125 L 93.15625 0 L 75.390625 0 L 75.390625 -12.671875 C 72.398438 -8.648438 68.328125 -5.300781 63.171875 -2.625 C 58.023438 0.0507812 52.160156 1.390625 45.578125 1.390625 C 38.265625 1.390625 31.566406 -0.488281 25.484375 -4.25 C 19.410156 -8.007812 14.597656 -13.257812 11.046875 -20 C 7.492188 -26.75 5.71875 -34.398438 5.71875 -42.953125 Z M 75.390625 -42.640625 C 75.390625 -48.503906 74.175781 -53.597656 71.75 -57.921875 C 69.332031 -62.253906 66.164062 -65.550781 62.25 -67.8125 C 58.34375 -70.082031 54.125 -71.21875 49.59375 -71.21875 C 45.0625 -71.21875 40.835938 -70.109375 36.921875 -67.890625 C 33.003906 -65.679688 29.835938 -62.4375 27.421875 -58.15625 C 25.003906 -53.882812 23.796875 -48.816406 23.796875 -42.953125 C 23.796875 -37.078125 25.003906 -31.925781 27.421875 -27.5 C 29.835938 -23.070312 33.03125 -19.695312 37 -17.375 C 40.96875 -15.0625 45.164062 -13.90625 49.59375 -13.90625 C 54.125 -13.90625 58.34375 -15.035156 62.25 -17.296875 C 66.164062 -19.566406 69.332031 -22.890625 71.75 -27.265625 C 74.175781 -31.640625 75.390625 -36.765625 75.390625 -42.640625 Z M 75.390625 -42.640625 "/></g></g><g style="fill:#11475b;fill-opacity:1;"><g transform="translate(822.622074, 457.943072)"><path style="stroke:none" d="M 88.203125 -85.125 L 36 40.015625 L 17.765625 40.015625 L 35.0625 -1.390625 L 1.546875 -85.125 L 21.171875 -85.125 L 45.109375 -20.234375 L 69.984375 -85.125 Z M 88.203125 -85.125 "/></g></g></g></svg>